# xmcd
#
# Track frame offsets: 
#        150
#        21145
#        42517
#        62174
#        80988
#        98840
#        120580
#        137035
#        159544
#        176376
#        200134
#        217767
#
# Disc length: 3185 seconds
#
# Revision: 0
# Processed by: cddbd v1.5.2PL0 Copyright (c) Steve Scherf et al.
# Submitted via: ExactAudioCopyFreeDBPlugin 1.0
#
DISCID=a80c6f0c
DTITLE=Green Hill - Country Piano Hymns
DYEAR=2014
DGENRE=Gospel
TTITLE0=What A Friend We Have In Jesus
TTITLE1=I'll Fly Away
TTITLE2=In The Sweet By and By
TTITLE3=Just A Closer Walk With Thee
TTITLE4='Tis So Sweet To Trust In Jesus
TTITLE5=Amazing Grace
TTITLE6=Unclouded Day
TTITLE7=Precious Memories
TTITLE8=When We All Get To Heaven
TTITLE9=Softly And Tenderly
TTITLE10=Shall We Gather At The River
TTITLE11=I Surrender All
EXTD=
EXTT0=
EXTT1=
EXTT2=
EXTT3=
EXTT4=
EXTT5=
EXTT6=
EXTT7=
EXTT8=
EXTT9=
EXTT10=
EXTT11=
PLAYORDER=
